<?xml version="1.0" standalone="no"?>
<!DOCTYPE svg PUBLIC "-//W3C//DTD SVG 20010904//EN"
 "http://www.w3.org/TR/2001/REC-SVG-20010904/DTD/svg10.dtd">
<svg version="1.0" xmlns="http://www.w3.org/2000/svg"
 width="2000.000000pt" height="2000.000000pt" viewBox="0 0 2000.000000 2000.000000"
 preserveAspectRatio="xMidYMid meet">
<metadata>
Created by potrace 1.16, written by Peter Selinger 2001-2019
</metadata>
<g transform="translate(0.000000,2000.000000) scale(0.100000,-0.100000)"
fill="#000000" stroke="none">
<path d="M10189 18686 c-67 -18 -136 -61 -212 -135 -155 -149 -280 -400 -368
-741 -61 -233 -187 -945 -279 -1570 -44 -305 -70 -433 -217 -1099 l-167 -754
-43 47 c-23 26 -52 72 -63 104 -52 135 -31 264 60 382 28 36 60 78 72 94 l21
28 -34 -7 c-227 -45 -725 -191 -747 -218 -5 -7 -69 -205 -142 -442 -73 -236
-144 -452 -157 -479 -13 -26 -45 -68 -70 -93 -222 -215 -580 -98 -643 210 -13
67 -9 105 31 237 15 52 27 96 25 97 -5 5 -211 -135 -338 -230 -104 -76 -202
-156 -294 -237 l-36 -31 32 -442 c18 -243 30 -471 28 -508 -7 -129 -99 -258
-226 -317 -49 -23 -70 -27 -152 -27 -85 0 -102 3 -160 31 -152 72 -230 212
-230 417 0 61 -5 67 -27 40 -49 -62 -262 -393 -331 -515 l-83 -147 181 -408
c227 -507 223 -496 218 -600 -4 -66 -10 -93 -36 -146 -38 -77 -111 -148 -190
-185 -49 -23 -70 -27 -152 -27 -85 0 -102 3 -160 31 -88 42 -152 109 -201 211
-21 46 -39 88 -39 93 0 5 -4 11 -9 14 -19 12 -113 -424 -147 -682 -17 -130
-17 -134 2 -152 10 -10 156 -147 324 -305 168 -158 319 -305 337 -327 78 -97
100 -251 54 -371 -62 -160 -250 -267 -416 -236 -87 16 -135 42 -227 125 -46
40 -85 69 -87 63 -12 -38 76 -553 129 -749 l10 -37 427 -183 c236 -101 446
-196 469 -211 85 -58 144 -151 164 -262 13 -68 -7 -178 -44 -241 -35 -59 -117
-133 -184 -164 -49 -23 -70 -27 -147 -27 -82 0 -98 4 -180 38 -140 60 -136 63
-75 -49 137 -255 369 -613 399 -615 9 -1 228 -4 486 -8 l470 -6 67 -32 c89
-42 151 -101 191 -182 30 -61 32 -73 32 -166 0 -87 -3 -107 -27 -157 -45 -96
-136 -179 -230 -210 -18 -6 -92 -13 -165 -17 l-132 -6 106 -90 c123 -104 336
-267 457 -349 l84 -56 464 157 c454 155 465 158 549 158 78 0 91 -3 161 -37
90 -45 138 -94 182 -187 27 -59 31 -76 31 -156 0 -82 -3 -96 -33 -155 -60
-121 -125 -173 -282 -225 -62 -21 -108 -41 -103 -46 27 -27 713 -229 779 -229
8 0 177 140 377 311 377 325 415 352 522 369 52 8 138 1 152 -13 7 -7 -13
-105 -113 -557 -150 -677 -198 -826 -429 -1341 -106 -235 -402 -839 -548
-1117 l-106 -202 10 -113 c18 -206 57 -365 112 -462 31 -55 133 -138 332 -270
198 -132 367 -230 437 -255 97 -34 214 9 334 123 182 171 321 471 409 882 71
329 183 990 260 1525 28 191 67 389 156 788 l118 534 155 301 c86 166 169 319
187 340 73 89 198 142 315 135 176 -11 319 -141 355 -320 18 -87 0 -162 -71
-300 l-60 -118 62 24 c168 64 528 240 695 340 0 1 27 217 58 480 41 352 62
494 77 535 30 79 131 180 211 209 199 75 401 -6 490 -196 34 -74 40 -145 24
-312 l-8 -85 183 185 c209 211 391 424 384 449 -3 9 -37 142 -76 296 -39 154
-92 359 -117 455 -53 205 -55 275 -11 372 69 151 205 234 371 226 97 -4 172
-34 239 -97 71 -65 92 -111 148 -331 l12 -45 21 40 c79 154 266 627 282 715 6
33 -6 51 -231 365 -377 526 -370 513 -362 659 11 197 157 343 354 354 166 9
259 -48 399 -243 l50 -70 8 70 c11 90 11 711 0 747 -6 21 -93 84 -403 293
-217 146 -412 282 -433 303 -91 88 -131 251 -92 373 51 159 197 270 359 271
93 1 151 -20 263 -94 58 -38 108 -67 111 -64 7 8 -88 295 -152 456 -67 170
-142 330 -154 330 -5 0 -215 43 -468 95 -325 67 -474 103 -511 121 -72 35
-140 106 -177 184 -28 58 -31 75 -31 155 1 124 27 189 109 271 105 105 229
134 406 95 142 -32 141 -32 69 57 -133 165 -385 440 -455 497 -41 34 -42 34
-105 25 -35 -5 -253 -37 -484 -70 -386 -57 -425 -61 -480 -50 -125 24 -229
105 -284 220 -23 48 -26 68 -26 155 0 93 2 105 33 167 40 82 120 158 195 186
28 11 86 25 127 31 148 24 144 17 44 75 -203 119 -607 316 -653 318 -9 1 -187
-99 -396 -222 -473 -278 -466 -274 -575 -274 -112 0 -180 26 -260 101 -130
120 -162 290 -83 448 34 71 94 127 195 187 54 32 83 55 75 59 -21 12 -295 48
-447 59 -208 16 -250 20 -250 29 0 14 88 364 114 454 84 285 398 978 757 1671
l162 311 -13 128 c-16 171 -52 325 -96 415 -30 61 -47 82 -107 130 -153 122
-471 325 -621 398 -95 47 -114 50 -187 30z m-38 -223 c-7 -26 -58 -163 -113
-303 -127 -323 -228 -620 -329 -974 -75 -263 -179 -674 -230 -903 -13 -56 -24
-101 -26 -99 -2 2 6 77 17 167 133 1049 369 1829 643 2127 22 23 42 40 45 38
2 -3 -1 -27 -7 -53z m677 -363 c86 -63 109 -102 140 -235 31 -135 55 -313 48
-359 -4 -23 -27 -92 -52 -154 -49 -122 -140 -313 -130 -272 33 137 40 205 40
375 0 146 -4 197 -21 270 -46 198 -117 345 -238 495 l-64 79 102 -73 c56 -40
135 -96 175 -126z m-563 -1756 c-52 -89 -169 -190 -414 -359 -156 -107 -231
-169 -261 -214 -20 -28 -37 -89 -69 -237 -128 -600 -579 -2771 -948 -4567
l-178 -869 -58 7 c-76 8 -107 23 -107 50 0 11 16 91 36 176 81 351 162 755
194 969 6 41 15 138 20 215 5 77 25 230 45 340 84 473 306 1521 575 2710 61
270 133 591 160 715 110 501 131 561 226 655 41 41 85 68 218 133 168 82 322
170 491 280 50 32 92 55 93 50 2 -4 -8 -29 -23 -54z m-164 -500 c-51 -206
-102 -434 -145 -659 -35 -176 -86 -477 -85 -495 0 -8 16 50 35 130 74 315 187
678 294 945 46 115 115 267 106 234 -2 -9 -34 -114 -70 -235 -153 -513 -244
-900 -395 -1694 -139 -729 -639 -3284 -766 -3910 -12 -63 -13 -64 -14 -21 -3
132 56 671 115 1041 87 542 488 2845 728 4180 30 167 54 306 52 308 -2 1 -14
-34 -26 -79 -123 -458 -361 -1704 -750 -3934 -187 -1075 -185 -1065 -226
-1164 -59 -142 -152 -316 -195 -365 l-41 -46 -71 0 c-65 0 -185 14 -193 23 -2
2 131 639 296 1416 543 2560 708 3342 769 3656 103 527 117 559 288 658 43 25
136 83 208 130 71 47 131 85 133 83 1 -2 -20 -93 -47 -202z m490 -946 c-57
-106 -74 -171 -69 -281 3 -74 9 -103 30 -149 49 -106 151 -192 269 -229 82
-25 214 -25 289 1 30 10 56 17 58 16 6 -6 -68 -45 -115 -62 -212 -73 -456 33
-561 244 -35 73 -37 80 -37 177 0 96 2 104 37 175 31 63 118 180 134 180 2 0
-13 -33 -35 -72z m-1811 -59 c-29 -111 -19 -251 25 -347 13 -28 47 -77 75
-106 46 -49 51 -58 45 -85 -4 -17 -11 -31 -17 -31 -5 0 -36 27 -69 60 -105
105 -146 236 -117 373 16 70 56 182 64 174 2 -2 -1 -19 -6 -38z m3575 -451
c-82 -60 -157 -144 -193 -217 -36 -72 -37 -79 -37 -181 0 -102 1 -109 38 -182
78 -159 232 -255 412 -259 58 -1 59 -1 25 -11 -19 -5 -74 -8 -121 -6 -72 3
-97 9 -160 39 -284 136 -360 503 -146 712 29 29 84 69 123 89 77 42 105 49 59
16z m-5185 -458 c45 -120 159 -231 273 -265 28 -8 83 -15 123 -15 175 0 336
99 415 255 43 83 28 21 -16 -71 -39 -81 -123 -167 -197 -202 -243 -118 -529
-17 -619 218 -16 40 -23 84 -25 160 l-4 105 15 -65 c8 -36 24 -90 35 -120z
m6544 -713 c-49 -18 -114 -48 -142 -66 -304 -195 -246 -637 103 -783 59 -25
12 -23 -63 3 -133 45 -240 159 -283 301 -31 103 -24 229 17 318 68 144 187
227 359 250 102 13 103 10 9 -23z m-6993 -318 c0 -203 -113 -369 -299 -436
-232 -85 -450 8 -554 235 -37 82 -32 98 11 32 52 -80 126 -147 210 -188 72
-35 80 -37 176 -37 97 0 104 2 178 38 161 79 266 242 267 411 0 22 3 37 6 34
3 -3 5 -44 5 -89z m3270 -1025 c68 -20 180 -78 208 -108 32 -34 59 -236 31
-236 -5 0 -43 20 -84 45 -76 47 -206 105 -235 105 -13 1 -12 3 4 12 11 6 60
14 110 17 l90 6 -72 38 c-40 20 -96 42 -125 48 -50 11 -108 53 -108 78 0 17
118 13 181 -5z m-205 -266 c22 -102 14 -400 -14 -559 -50 -278 -141 -450 -223
-424 -98 31 -88 635 16 962 36 115 94 196 116 162 7 -12 23 -159 34 -314 8
-114 -12 -341 -41 -454 -13 -53 -41 -130 -61 -171 -50 -102 -51 -102 -4 -40
47 64 93 183 112 290 14 82 19 494 7 640 l-7 85 25 -52 c14 -29 32 -85 40
-125z m2129 132 c204 -20 460 -90 760 -210 371 -148 704 -368 916 -605 59 -66
59 -66 -59 29 -102 82 -284 204 -422 283 -450 259 -864 391 -1273 408 l-132 5
135 -19 c357 -51 650 -138 957 -286 504 -243 897 -561 1136 -918 134 -200 230
-436 198 -486 -13 -21 -33 -3 -71 65 -61 108 -268 298 -460 423 -256 165 -448
215 -835 214 -225 0 -345 -14 -472 -55 -60 -19 -78 -31 -149 -102 -52 -52 -98
-110 -129 -163 -46 -80 -48 -82 -96 -92 -63 -14 -215 -14 -299 0 -122 19 -382
92 -368 104 2 1 49 -6 106 -15 207 -36 419 -34 525 3 32 11 20 12 -106 13
-152 0 -251 16 -387 61 -70 24 -230 98 -230 107 0 3 26 -5 58 -16 179 -63 442
-85 632 -53 57 9 111 20 121 23 9 4 -58 7 -149 8 -189 1 -334 23 -534 80 -159
45 -195 65 -218 117 -42 94 -52 296 -25 504 23 172 46 237 109 299 65 63 104
74 268 74 328 -1 720 -48 987 -121 125 -34 90 -13 -57 35 -275 88 -528 128
-817 129 -104 1 -208 -2 -230 -7 l-40 -7 39 27 c57 39 192 100 263 118 52 14
145 28 223 35 8 0 65 -4 125 -9z m2701 -60 c43 -11 82 -24 86 -28 4 -4 -39 -5
-95 -4 -56 2 -127 -2 -157 -8 -126 -28 -220 -102 -277 -218 -38 -76 -38 -77
-38 -202 0 -121 1 -127 33 -192 18 -37 56 -93 85 -124 58 -64 33 -58 -41 9
-122 113 -174 276 -138 431 40 171 156 300 306 340 77 20 144 19 236 -4z
m-3586 -62 c0 -28 -50 -117 -71 -129 -23 -12 -255 -8 -309 6 -14 4 11 -9 55
-29 121 -55 120 -53 118 -204 -1 -70 -9 -183 -17 -252 -8 -68 -14 -126 -12
-127 6 -7 58 160 76 243 l19 89 0 -272 1 -273 -47 34 c-100 71 -248 132 -402
166 l-75 16 1 169 2 170 -14 -115 c-15 -133 -37 -197 -72 -211 -14 -5 -28 -7
-33 -4 -4 2 3 47 15 98 32 132 49 301 42 421 l-6 101 25 -47 c45 -88 67 -207
62 -350 -2 -70 -3 -126 -2 -125 8 8 37 144 44 211 11 93 0 213 -29 305 l-18
59 241 5 c235 5 320 15 371 45 26 15 35 15 35 0z m-1086 -40 c13 -24 31 -76
40 -117 8 -41 20 -77 26 -81 6 -3 55 -17 110 -30 l100 -24 0 -83 c0 -147 -39
-355 -83 -443 -35 -70 -67 -81 -214 -78 -67 2 -124 5 -127 8 -2 3 9 43 25 89
16 46 42 140 56 210 25 116 28 144 28 359 0 127 3 232 7 232 4 0 18 -19 32
-42z m-4029 -124 c39 -151 -7 -305 -126 -425 -183 -183 -438 -180 -626 7 -35
36 -63 68 -60 70 3 3 26 -11 53 -31 203 -155 443 -150 601 11 121 124 161 305
108 490 -3 10 4 1 15 -22 11 -23 26 -67 35 -100z m4134 -805 c-16 -30 -78 -78
-116 -88 -49 -14 -133 -14 -188 0 l-43 11 35 47 35 47 143 -1 c128 0 142 -2
134 -16z m3567 -436 c112 -79 179 -172 218 -302 35 -120 12 -102 -141 112 -59
84 -132 181 -162 217 l-55 64 40 -24 c21 -13 67 -43 100 -67z m-2561 41 c46
-34 157 -84 188 -84 33 0 34 -10 5 -36 -35 -31 -103 -144 -139 -229 l-34 -80
-7 110 c-6 113 -27 233 -53 306 -8 23 -15 43 -15 46 0 5 18 -5 55 -33z m-4848
-111 c16 -21 72 -96 123 -168 51 -71 112 -152 135 -180 23 -27 45 -56 50 -64
23 -39 -200 123 -237 171 -32 41 -71 119 -90 178 -36 109 -32 125 19 63z
m2758 -236 c9 -43 24 -104 34 -136 l18 -59 -45 35 c-58 44 -127 79 -186 94
l-46 11 38 42 c45 49 101 145 134 231 l23 60 7 -100 c4 -55 14 -135 23 -178z
m-3015 105 c92 -162 396 -411 650 -530 191 -91 360 -117 705 -109 239 6 319
16 430 57 49 18 75 37 140 104 44 45 96 110 115 144 51 91 52 92 95 103 61 14
250 11 345 -5 47 -9 132 -29 190 -46 112 -34 161 -56 100 -45 -227 38 -437 43
-560 14 l-55 -13 155 -7 c123 -6 179 -14 272 -37 104 -27 318 -115 307 -127
-3 -2 -31 5 -64 16 -206 69 -488 83 -685 34 -55 -13 -55 -13 79 -14 200 -1
433 -41 634 -107 148 -49 167 -86 174 -334 8 -277 -28 -467 -106 -553 -66 -74
-96 -80 -336 -78 -348 3 -603 33 -899 107 -54 14 -100 23 -103 20 -7 -7 210
-75 342 -106 226 -54 327 -65 606 -65 251 0 256 0 230 -18 -57 -39 -165 -88
-248 -113 -106 -32 -292 -43 -424 -25 -324 43 -838 234 -1152 429 -176 108
-396 290 -479 394 -29 37 -19 31 70 -40 337 -269 827 -520 1199 -617 150 -39
304 -64 462 -76 79 -5 145 -8 148 -6 2 3 -40 10 -94 17 -203 25 -432 77 -629
144 -485 164 -1010 499 -1311 837 -199 223 -373 541 -373 681 0 58 26 47 70
-30z m-305 -87 c81 -99 118 -234 97 -355 -46 -268 -282 -437 -522 -376 -66 17
-176 63 -169 70 2 3 33 -2 69 -11 43 -10 99 -14 165 -11 86 3 109 8 165 34 88
41 149 103 196 199 39 78 39 80 39 194 -1 134 -18 191 -85 279 -32 42 -35 49
-16 36 14 -8 41 -35 61 -59z m9078 40 c76 -16 163 -59 222 -110 l40 -35 -75
34 c-97 44 -181 60 -277 53 -290 -22 -465 -351 -339 -635 l26 -57 -25 30 c-53
63 -95 185 -95 273 0 52 25 146 57 210 54 113 190 217 314 241 63 13 76 12
152 -4z m-3778 -216 c-23 -275 -53 -557 -76 -709 -68 -459 -384 -2282 -719
-4156 -50 -276 -90 -507 -89 -515 2 -50 104 383 194 831 144 713 299 1562 614
3365 77 440 143 816 147 835 19 98 176 418 239 488 39 42 44 45 95 45 71 1
182 -12 199 -22 10 -7 -27 -195 -174 -887 -635 -2992 -795 -3753 -870 -4129
-84 -424 -116 -541 -163 -605 -34 -45 -38 -49 -162 -124 -58 -36 -152 -96
-210 -134 -58 -39 -106 -70 -107 -68 -1 1 14 62 32 136 52 201 139 600 179
815 48 258 78 437 73 441 -1 2 -18 -63 -36 -143 -59 -262 -185 -681 -272 -901
-61 -154 -121 -293 -126 -289 -2 3 17 72 42 153 159 514 255 918 420 1784 130
680 313 1615 575 2947 110 556 200 1017 200 1024 0 7 2 10 5 7 3 -3 -2 -88
-10 -189z m786 151 c20 -6 42 -16 47 -23 8 -9 0 -62 -29 -187 -140 -614 -201
-948 -219 -1210 -11 -157 -36 -313 -125 -757 -116 -577 -372 -1755 -565 -2598
-39 -170 -89 -395 -111 -500 -76 -356 -112 -455 -198 -544 -39 -40 -82 -66
-212 -129 -160 -79 -382 -206 -526 -304 -40 -27 -73 -46 -73 -43 0 13 45 93
72 127 42 54 162 151 338 273 191 133 269 195 297 237 15 24 43 134 97 388
144 680 729 3502 986 4760 56 272 103 501 105 508 5 15 66 16 116 2z m-1434
-453 c21 -13 -56 -109 -82 -103 -50 12 -174 16 -217 8 -42 -8 -46 -7 -38 7 12
23 60 66 95 85 23 13 52 16 130 13 55 -1 106 -6 112 -10z m187 -76 c35 -39 48
-152 43 -376 -7 -284 -43 -502 -107 -640 -27 -58 -62 -105 -79 -105 -29 0 -53
466 -32 625 19 138 50 248 97 343 52 103 17 69 -41 -40 -48 -89 -72 -192 -86
-356 -12 -136 -6 -428 10 -541 7 -46 6 -51 -6 -35 -52 71 -78 233 -70 433 10
242 58 479 124 603 53 101 107 134 147 89z m-1309 -67 c81 -61 272 -137 412
-164 l63 -13 -7 -101 c-3 -56 -2 -146 3 -201 l9 -100 5 145 c7 167 27 234 75
246 14 3 28 4 31 1 3 -3 -2 -29 -10 -58 -33 -116 -49 -245 -49 -399 l-1 -154
-27 59 c-41 91 -54 166 -54 312 0 140 -5 142 -31 11 -22 -108 -15 -285 15
-378 11 -36 21 -65 21 -65 0 0 -93 -1 -208 -2 -214 -1 -341 -16 -403 -47 -18
-9 -34 -14 -36 -12 -7 6 35 107 52 127 24 26 104 33 221 19 54 -6 108 -13 119
-16 22 -5 3 5 -87 44 -102 44 -102 44 -95 239 4 93 11 201 17 242 6 40 9 75 7
77 -6 7 -44 -102 -61 -176 -8 -36 -19 -83 -24 -105 -7 -29 -10 38 -11 233 -1
216 2 272 12 266 6 -4 26 -18 42 -30z m1038 -23 c5 -5 1 -25 -7 -46 -24 -57
-66 -218 -82 -314 -19 -112 -28 -367 -17 -458 5 -40 6 -73 2 -73 -28 0 -89
145 -89 211 0 31 9 27 -150 67 l-75 19 1 109 c3 210 64 442 127 476 12 6 38
15 57 19 42 9 221 1 233 -10z m-354 -839 c60 -38 180 -95 226 -107 l30 -7 -25
-10 c-14 -5 -61 -13 -105 -17 l-80 -7 72 -37 c40 -20 96 -42 125 -48 52 -12
98 -46 98 -74 0 -37 -175 -9 -283 46 -124 63 -137 84 -137 227 0 64 3 81 13
76 6 -4 36 -23 66 -42z m-3897 -78 c148 -75 238 -228 238 -404 0 -211 -121
-375 -315 -426 -52 -14 -178 -17 -230 -5 -24 6 -16 8 41 14 253 25 421 174
441 391 15 165 -71 340 -217 438 -38 25 -16 21 42 -8z m8379 -81 c74 -37 141
-97 193 -174 50 -75 45 -81 -16 -19 -66 67 -150 122 -223 144 -77 25 -210 19
-280 -13 -175 -78 -282 -251 -274 -445 2 -47 3 -83 1 -81 -12 11 -32 120 -32
171 0 112 42 216 122 300 105 111 209 156 354 151 79 -2 100 -7 155 -34z
m-7501 -1254 c179 -28 322 -158 371 -337 68 -243 -61 -463 -315 -537 -31 -9
-60 -14 -63 -11 -4 3 0 6 7 6 26 0 157 90 204 140 167 179 150 450 -40 619
-61 54 -155 100 -222 108 -29 3 -49 10 -46 14 7 11 25 11 104 -2z m6443 -108
c117 -46 216 -168 251 -312 25 -102 19 -111 -18 -26 -76 172 -196 275 -347
296 -225 31 -443 -117 -503 -340 -13 -49 -15 -51 -15 -19 -1 19 6 59 13 87 42
157 136 257 300 320 82 31 230 28 319 -6z m-4904 -840 c164 -51 291 -197 323
-370 29 -155 -54 -327 -208 -431 l-49 -33 31 34 c129 138 186 303 154 440 -50
216 -261 365 -491 346 -38 -3 -69 -4 -69 -2 0 3 21 11 48 19 68 21 188 20 261
-3z m3344 -26 c141 -30 272 -133 318 -252 28 -73 36 -198 18 -278 l-13 -60 -7
96 c-16 204 -97 333 -255 406 -48 22 -77 28 -154 31 -108 5 -188 -16 -272 -70
-50 -31 -148 -132 -148 -150 0 -6 -3 -9 -6 -6 -3 3 3 23 14 45 52 101 152 188
254 222 107 34 152 37 251 16z m-1710 -301 c11 -4 13 -13 8 -32 -7 -24 -11
-26 -42 -22 -119 17 -247 -6 -334 -61 -48 -30 -49 -30 -26 -5 37 40 115 86
179 107 55 17 184 25 215 13z m528 -2111 c-126 -995 -362 -1787 -624 -2088
-100 -115 -91 -76 86 370 176 441 391 1172 528 1792 13 56 25 101 27 98 2 -2
-6 -79 -17 -172z m-1375 -774 c-91 -397 7 -828 252 -1100 58 -65 44 -57 -143
78 -82 60 -160 124 -173 143 -31 46 -56 134 -83 286 -32 191 -31 229 18 354
45 117 134 312 140 307 2 -2 -3 -33 -11 -68z"/>
<path d="M12735 10774 c-43 -8 -113 -23 -155 -33 l-75 -19 202 -1 c345 -2 598
-50 813 -155 51 -25 53 -25 26 -4 -62 49 -210 138 -279 166 -39 17 -107 37
-149 46 -95 20 -274 20 -383 0z"/>
<path d="M6450 9466 c0 -9 133 -98 203 -136 153 -83 308 -117 478 -107 91 6
337 49 365 65 7 4 -62 6 -154 4 -330 -7 -632 47 -834 149 -32 16 -58 27 -58
25z"/>
<path d="M8860 17524 c-453 -73 -847 -168 -1242 -298 -2004 -661 -3666 -2155
-4537 -4078 -598 -1319 -805 -2780 -600 -4223 259 -1822 1168 -3478 2575
-4689 871 -749 1945 -1312 3032 -1587 l174 -44 22 28 c69 86 294 469 458 778
152 288 507 1034 496 1044 -2 1 -64 13 -138 25 -888 146 -1726 503 -2450 1044
-294 220 -678 581 -910 856 -734 871 -1161 1859 -1301 3006 -26 217 -37 763
-20 1005 77 1085 456 2104 1103 2969 275 367 640 743 1005 1033 573 456 1231
795 1933 996 l165 47 22 100 c13 54 41 223 64 374 71 480 224 1307 283 1538
l24 92 -37 -1 c-20 -1 -74 -7 -121 -15z m-1188 -970 l47 -115 -52 -23 c-29
-13 -99 -43 -157 -66 -58 -24 -109 -46 -113 -50 -6 -5 25 -95 38 -108 1 -2 68
24 148 56 l144 60 44 -106 c24 -58 45 -109 47 -112 1 -4 -59 -33 -135 -64 -76
-32 -142 -61 -146 -65 -4 -4 5 -35 20 -68 l28 -61 160 68 c88 37 164 64 168
60 16 -14 97 -224 90 -231 -13 -11 -616 -259 -621 -255 -6 7 -393 939 -390
941 12 8 615 255 623 255 6 0 31 -52 57 -116z m-1104 -545 c167 -83 232 -295
136 -441 -13 -21 -24 -39 -24 -40 0 -2 88 -48 195 -103 107 -55 195 -102 195
-105 0 -6 -260 -177 -282 -185 -14 -6 -132 56 -318 163 l-44 26 24 -39 c13
-22 54 -85 90 -140 37 -55 69 -105 73 -112 5 -7 -41 -43 -123 -97 -72 -47
-134 -86 -138 -86 -6 0 -234 345 -505 762 l-57 88 205 135 c288 189 318 203
436 204 65 1 84 -3 137 -30z m-1113 -750 l90 -90 -130 -123 -130 -123 39 -47
38 -47 96 90 c54 49 106 98 116 110 l20 22 54 -53 c29 -29 67 -69 83 -89 l29
-36 -112 -110 -111 -110 43 -47 c23 -25 47 -46 53 -46 6 0 66 55 134 122 l123
122 41 -40 c22 -21 63 -64 90 -95 l49 -56 -240 -229 c-132 -126 -244 -230
-249 -232 -4 -1 -166 162 -359 363 l-350 365 241 235 c133 129 244 234 247
235 3 0 46 -41 95 -91z m-629 -1048 c175 -124 358 -253 406 -287 l88 -62 -86
-123 c-48 -68 -90 -128 -94 -132 -4 -5 -78 42 -165 102 -87 61 -161 111 -164
111 -10 0 -170 -233 -165 -241 3 -6 241 -176 307 -220 9 -6 -167 -269 -180
-269 -4 0 -14 6 -22 14 -9 7 -191 136 -406 286 -214 150 -393 276 -398 279
-10 10 171 267 185 263 6 -2 70 -45 143 -97 73 -52 138 -96 143 -97 13 -4 174
222 169 236 -2 5 -65 53 -140 106 -75 52 -139 98 -142 102 -4 3 35 65 85 137
63 90 95 129 104 124 7 -5 156 -109 332 -232z m-1259 -1588 c62 -21 112 -42
110 -48 -25 -66 -80 -245 -77 -248 3 -2 158 -55 345 -117 187 -62 348 -117
357 -121 15 -8 12 -23 -33 -156 -28 -81 -52 -149 -53 -150 -2 -2 -164 51 -361
117 -198 66 -362 117 -365 113 -4 -5 -24 -60 -45 -123 -21 -63 -39 -116 -40
-118 -1 -1 -55 15 -121 37 -80 26 -118 44 -116 53 13 62 267 798 275 798 6 0
62 -17 124 -37z m-273 -1448 l225 -185 268 145 c225 122 268 142 271 127 2
-10 -6 -90 -18 -178 -11 -87 -20 -164 -20 -169 0 -6 -63 -44 -140 -85 -77 -41
-140 -77 -139 -80 0 -3 54 -45 120 -95 95 -72 119 -94 115 -110 -2 -11 -12
-91 -22 -177 -10 -87 -21 -158 -25 -158 -4 0 -111 86 -238 190 -127 105 -237
190 -243 190 -7 0 -128 -63 -268 -139 -140 -77 -256 -135 -258 -131 -2 5 6 86
17 179 12 94 21 174 21 180 0 5 53 38 118 72 64 34 125 68 135 75 17 11 7 21
-98 100 -110 84 -116 91 -111 119 3 17 13 97 22 178 13 113 20 147 30 143 8
-3 115 -89 238 -191z m657 -1317 c0 -24 10 -176 23 -338 12 -162 22 -296 20
-298 -2 -3 -840 -68 -964 -74 l-55 -3 -22 285 c-12 157 -22 310 -22 341 l-1
56 121 7 c89 5 124 4 129 -4 4 -7 10 -64 14 -128 4 -65 10 -138 13 -164 l6
-48 60 0 60 0 -6 63 c-4 34 -9 105 -13 159 l-7 96 79 6 c44 4 98 9 120 12 l42
5 5 -43 c4 -24 9 -96 13 -160 l7 -117 66 6 c36 3 68 7 70 9 2 2 -2 80 -9 174
-7 94 -10 173 -7 176 5 5 147 20 220 23 l37 1 1 -42z m-642 -1195 c6 -21 21
-78 34 -128 21 -76 27 -90 43 -87 11 2 176 44 367 93 192 50 351 88 353 86 7
-7 83 -301 79 -305 -2 -2 -167 -46 -366 -98 -199 -52 -364 -96 -366 -98 -2 -1
12 -60 30 -129 l34 -127 -36 -10 c-112 -31 -210 -54 -214 -50 -2 3 -50 185
-107 405 -57 220 -105 405 -107 411 -3 9 193 70 234 73 7 1 17 -16 22 -36z
m1254 -1566 c172 -63 296 -201 342 -382 81 -318 -180 -645 -515 -645 -312 0
-566 294 -522 603 14 93 62 200 122 269 70 81 197 153 315 178 64 14 185 3
258 -23z m820 -1118 c165 -32 346 -212 401 -398 49 -166 -15 -356 -167 -498
-147 -137 -321 -183 -490 -130 -238 76 -429 349 -388 554 10 52 45 137 70 173
9 12 32 -7 131 -105 112 -112 120 -122 120 -159 0 -79 91 -166 174 -166 113 1
257 138 256 244 -1 104 -122 226 -225 226 l-40 0 90 -90 90 -90 -82 -82 -82
-82 -173 178 c-95 98 -176 184 -180 190 -4 8 37 56 106 125 l112 112 65 8 c67
9 132 6 212 -10z m1125 -944 c185 -44 343 -193 396 -374 18 -62 21 -193 5
-261 -18 -81 -68 -169 -136 -241 -110 -116 -218 -164 -373 -164 -156 0 -285
58 -396 177 -92 98 -137 212 -136 348 2 338 317 591 640 515z m1192 -625 c151
-62 277 -114 279 -116 4 -4 -380 -944 -386 -944 -10 0 -279 112 -286 119 -4 4
57 167 137 362 80 194 142 356 138 359 -4 4 -67 31 -139 60 -73 29 -133 57
-133 60 0 8 78 198 87 213 3 5 10 6 17 4 6 -3 135 -55 286 -117z"/>
<path d="M6312 15715 c-24 -14 -56 -34 -72 -45 l-29 -21 41 -64 c22 -36 44
-67 48 -70 10 -6 136 81 144 100 13 35 5 67 -23 96 -36 35 -53 36 -109 4z"/>
<path d="M4348 6796 c-57 -20 -131 -78 -155 -122 -49 -85 -14 -209 72 -260 52
-30 131 -32 191 -5 50 23 120 84 140 122 20 40 18 122 -5 167 -50 97 -142 134
-243 98z"/>
<path d="M6335 4727 c-82 -38 -150 -148 -150 -242 0 -72 24 -112 93 -156 82
-52 176 -36 246 42 111 122 109 256 -5 335 -48 33 -135 43 -184 21z"/>
<path d="M11677 17292 c-184 -291 -338 -571 -546 -992 -147 -296 -355 -740
-349 -745 2 -1 39 -8 83 -14 397 -61 879 -194 1252 -346 498 -203 1008 -507
1427 -850 637 -520 1136 -1151 1497 -1890 314 -645 483 -1262 551 -2015 18
-197 14 -717 -6 -925 -115 -1181 -539 -2203 -1291 -3110 -139 -167 -522 -550
-690 -689 -630 -523 -1343 -899 -2097 -1106 l-117 -32 -25 -107 c-30 -129 -39
-176 -71 -406 -56 -394 -218 -1279 -276 -1509 -11 -43 -18 -81 -15 -84 7 -6
171 19 396 59 759 138 1527 409 2215 782 1522 825 2717 2136 3392 3723 610
1432 761 3041 431 4579 -244 1142 -765 2233 -1502 3150 -331 412 -761 842
-1171 1171 -829 666 -1814 1162 -2827 1424 l-188 48 -73 -116z m857 -736 c120
-45 217 -87 218 -92 1 -19 -288 -764 -296 -764 -7 0 -339 123 -497 185 -17 6
-18 5 51 182 9 22 10 21 137 -28 70 -27 132 -49 139 -49 6 0 16 19 23 41 15
50 21 45 -116 95 -57 21 -103 42 -103 46 0 9 60 170 66 176 1 2 27 -5 56 -16
29 -11 83 -31 119 -45 l67 -25 19 53 20 53 -126 47 c-69 26 -130 51 -135 56
-8 7 10 67 51 166 l13 33 39 -16 c21 -8 136 -52 255 -98z m818 -397 c134 -28
264 -123 318 -232 74 -151 37 -339 -97 -486 -136 -151 -336 -173 -517 -57 -71
45 -141 126 -167 194 -26 66 -31 184 -10 244 l12 37 117 -68 c109 -64 117 -71
123 -104 11 -67 56 -113 122 -124 84 -13 178 89 185 201 3 52 0 65 -19 90 -40
51 -114 70 -168 42 -27 -14 -32 -12 -142 50 -62 36 -116 67 -118 70 -8 8 62
75 104 99 43 26 133 53 177 54 15 1 51 -4 80 -10z m941 -594 c49 -37 86 -73
84 -79 -4 -9 -463 -612 -488 -640 -7 -8 -191 124 -205 146 -4 7 420 570 479
635 12 14 24 19 31 14 6 -4 51 -39 99 -76z m702 -625 l120 -120 -194 -383
c-107 -210 -196 -384 -198 -387 -2 -2 -47 39 -100 92 l-96 96 113 209 c62 114
127 232 143 261 l30 54 -54 -30 c-30 -16 -148 -80 -263 -142 l-209 -111 -64
63 c-36 35 -78 80 -94 100 l-30 38 383 189 c211 104 385 190 388 190 3 1 59
-53 125 -119z m622 -707 c37 -53 71 -103 76 -110 4 -7 -20 -68 -63 -154 -39
-77 -70 -142 -68 -144 2 -1 53 33 113 76 61 43 112 79 115 79 7 0 153 -210
149 -214 -2 -1 -40 -27 -84 -58 -44 -30 -190 -133 -325 -228 -135 -95 -251
-173 -259 -174 -20 -1 -257 337 -281 402 -50 134 3 271 132 338 17 9 57 19 88
21 48 5 67 1 115 -21 32 -14 59 -25 60 -24 2 2 35 74 75 160 41 86 77 155 81
152 4 -2 38 -48 76 -101z m665 -1078 c67 -134 120 -246 118 -248 -7 -7 -729
-367 -735 -367 -6 0 -245 476 -245 488 0 9 178 98 184 91 2 -2 31 -59 65 -126
34 -68 64 -123 66 -123 3 0 24 9 45 20 l40 20 -55 110 c-30 60 -55 112 -55
115 0 6 157 85 170 85 5 0 35 -50 65 -110 l55 -110 50 25 50 25 -65 130 -65
130 87 44 c49 25 91 45 96 45 4 1 62 -109 129 -244z m235 -719 c169 -87 241
-394 127 -543 -23 -30 -110 -90 -119 -82 -2 2 -22 61 -44 131 l-42 127 26 25
c30 30 31 46 7 76 -21 25 -55 21 -67 -8 -4 -9 -11 -72 -15 -139 -11 -150 -23
-192 -72 -248 -44 -50 -105 -75 -182 -75 -124 1 -227 103 -271 271 -41 152 2
282 113 342 l48 26 44 -135 44 -134 -22 -16 c-41 -28 -19 -94 27 -79 27 8 38
51 46 174 4 57 13 126 21 153 19 62 72 122 127 142 53 20 160 15 204 -8z m-52
-1573 l260 -105 110 7 c61 3 119 7 130 8 21 2 25 -13 39 -179 l7 -80 -126 -12
-126 -11 -270 -171 c-149 -95 -273 -169 -276 -166 -7 7 -32 278 -27 288 2 3
63 39 134 79 72 40 127 76 123 80 -5 4 -70 28 -145 54 -156 54 -143 37 -153
190 -3 50 -9 105 -12 123 l-5 33 38 -16 c22 -9 156 -64 299 -122z m100 -982
c51 -23 121 -98 130 -140 3 -17 9 -31 11 -31 2 0 76 34 165 76 88 42 161 75
163 73 1 -2 -2 -67 -8 -144 l-11 -140 -150 -65 -150 -65 110 -8 c61 -4 125
-10 144 -13 l33 -5 -7 -127 c-4 -70 -8 -128 -10 -130 -5 -5 -816 56 -822 62
-8 8 16 369 29 436 21 108 86 196 169 226 52 19 157 17 204 -5z m-322 -957
c70 -16 78 -20 73 -38 -3 -12 -14 -60 -24 -108 l-20 -87 112 -25 c405 -93 491
-115 490 -123 -4 -34 -48 -224 -54 -234 -6 -9 -76 4 -297 54 -159 37 -294 67
-300 67 -6 0 -21 -44 -33 -97 -12 -54 -24 -101 -26 -104 -3 -6 -191 35 -199
43 -4 4 139 637 150 667 3 8 14 11 28 8 12 -3 57 -13 100 -23z m39 -1075 c199
-82 363 -151 365 -152 2 -2 -19 -57 -46 -123 l-49 -119 -231 -46 c-127 -25
-233 -48 -236 -51 -3 -2 76 -38 175 -78 99 -41 180 -79 180 -85 0 -25 -94
-235 -104 -232 -50 20 -752 311 -754 312 -4 4 87 228 97 238 4 4 104 25 222
47 118 22 225 43 239 46 20 5 8 12 -70 45 -52 22 -139 58 -192 80 l-96 41 40
96 c22 53 44 107 49 120 7 18 14 22 29 17 11 -4 183 -74 382 -156z m-756 -890
c46 -29 84 -53 84 -55 0 -2 -34 -59 -75 -126 l-75 -122 37 -23 c21 -13 42 -22
47 -20 6 2 38 48 72 103 36 58 67 98 75 96 23 -6 149 -87 149 -96 0 -5 -27
-53 -60 -107 -33 -53 -60 -101 -60 -106 1 -8 91 -66 95 -61 1 2 35 58 76 125
69 114 75 121 94 109 11 -7 49 -30 85 -51 36 -21 67 -40 69 -41 2 -2 -270
-456 -284 -472 -3 -3 -684 414 -698 427 -7 7 270 471 281 471 2 0 42 -23 88
-51z m-393 -788 c55 -27 125 -95 148 -146 23 -50 25 -146 4 -206 -13 -37 -31
-64 -117 -174 -17 -21 -16 -23 83 -104 87 -73 98 -85 87 -99 -79 -102 -152
-181 -162 -175 -6 4 -148 122 -316 262 -168 140 -306 255 -308 257 -5 3 198
245 257 307 44 46 96 80 151 98 39 13 126 3 173 -20z m-712 -716 c55 -20 125
-86 151 -143 24 -53 25 -135 3 -187 -8 -21 -12 -42 -8 -45 5 -4 76 -31 158
-60 83 -28 153 -55 158 -59 4 -4 -40 -48 -97 -99 l-104 -91 -113 45 c-63 24
-131 51 -151 59 -21 8 -38 13 -38 10 0 -2 40 -50 90 -107 49 -57 90 -105 90
-108 0 -3 -43 -43 -96 -90 -95 -82 -97 -83 -113 -63 -9 12 -128 150 -266 307
-137 158 -251 290 -253 295 -3 9 263 244 330 291 84 59 174 75 259 45z m-711
-924 c184 -147 334 -272 333 -277 -2 -5 -52 -39 -112 -76 l-109 -67 -45 40
c-25 21 -50 39 -56 39 -8 0 -213 -121 -230 -136 -2 -2 3 -31 12 -66 9 -34 15
-63 14 -64 -1 -1 -50 -31 -110 -68 -105 -64 -127 -74 -127 -58 0 5 -38 196
-85 427 -47 230 -83 420 -80 423 13 14 241 151 250 151 6 0 161 -121 345 -268z
m-1143 -273 c44 -16 75 -38 127 -90 38 -38 65 -73 60 -77 -5 -4 -64 -29 -132
-55 -117 -46 -124 -47 -142 -31 -48 44 -159 24 -193 -34 -59 -101 32 -291 140
-291 63 0 125 49 138 109 5 26 18 33 125 75 65 25 123 46 129 46 14 0 24 -76
16 -128 -32 -211 -229 -363 -454 -350 -101 6 -170 39 -245 118 -164 172 -181
430 -38 590 105 119 321 173 469 118z"/>
<path d="M15242 13810 c-31 -30 -27 -66 14 -126 l37 -53 53 37 c29 20 53 42
54 47 0 6 -17 33 -38 60 -44 58 -82 70 -120 35z"/>
<path d="M16419 9614 c-7 -9 -15 -43 -17 -76 -5 -71 1 -78 74 -78 l51 0 7 38
c10 64 7 98 -12 115 -24 22 -85 22 -103 1z"/>
<path d="M14915 5898 l-38 -41 54 -48 c30 -27 57 -49 61 -49 14 0 68 86 68
110 0 35 -38 70 -77 70 -23 0 -40 -10 -68 -42z"/>
<path d="M14221 5179 c-28 -22 -51 -45 -51 -50 0 -11 79 -99 89 -99 3 0 27 20
54 44 57 53 63 92 21 125 -38 30 -54 27 -113 -20z"/>
<path d="M13390 4471 c0 -21 43 -196 50 -204 7 -8 119 52 120 64 0 3 -38 38
-85 78 -47 40 -85 68 -85 62z"/>
</g>
</svg>
